<?xml version="1.0"?>
<svg xmlns="http://www.w3.org/2000/svg" xmlns:xlink="http://www.w3.org/1999/xlink" version="1.1" id="Capa_1" x="0px" y="0px" viewBox="0 0 512.001 512.001" style="enable-background:new 0 0 512.001 512.001;" xml:space="preserve" width="512px" height="512px" class=""><g><g>
	<g>
		<path d="M504.52,248.519h-24.114c-32.787-15.157-52.413-44.663-58.324-87.746c-3.891-28.362-0.309-53.832,0.925-61.199    l14.014-14.014c2.921-2.921,2.921-7.658,0-10.579c-2.922-2.921-7.658-2.921-10.58,0l-14.357,14.357    c-66.171,20.375-135.775-42.547-148.602-54.901V7.481c0-4.132-3.349-7.481-7.481-7.481c-4.132,0-7.481,3.349-7.481,7.481v27.39    c-10.988,13.099-24.434,24.476-40.013,33.833c-3.542,2.127-4.689,6.722-2.562,10.264c2.128,3.541,6.726,4.688,10.264,2.561    c11.949-7.177,22.751-15.471,32.31-24.747v71.26c-2.534,3.219-32.795,40.304-75.249,34.648l-50.527-50.527    c11.271-1.286,27.289-3.942,45.241-9.439c3.951-1.21,6.172-5.392,4.963-9.343c-1.209-3.951-5.392-6.172-9.342-4.963    c-25.394,7.775-47.011,9.501-54.726,9.881L85.562,74.981c-2.922-2.921-7.658-2.921-10.58,0c-2.921,2.921-2.921,7.658,0,10.579    l23.582,23.582c2.924,69.84-59.933,129.382-71.094,139.377H7.482c-4.132,0-7.481,3.35-7.481,7.481s3.349,7.481,7.481,7.481h20.797    c32.573,26.411,52.982,59.219,60.666,97.565c4.852,24.218,2.859,43.315,1.973,49.458L74.981,426.44    c-2.921,2.921-2.921,7.658,0,10.579c1.461,1.461,3.376,2.191,5.29,2.191s3.829-0.731,5.29-2.191l15.467-15.466    c0.174,0,0.351-0.003,0.525-0.003c57.043,0,93.975,17.43,115.037,32.224c19.222,13.502,29.05,27.282,31.93,31.743v19.003    c0,4.131,3.349,7.481,7.481,7.481c4.132,0,7.481-3.349,7.481-7.481v-18.404c46.457-55.233,133.319-60.942,150.529-61.526    l12.43,12.43c1.461,1.461,3.376,2.191,5.29,2.191s3.829-0.731,5.29-2.191c2.921-2.921,2.921-7.658,0-10.579l-13.287-13.287    c-5.227-19.079-3.636-40.778,4.779-64.545c1.378-3.894-0.661-8.169-4.556-9.548c-3.891-1.378-8.169,0.659-9.549,4.555    c-6.453,18.226-9.291,35.52-8.527,51.685l-53.859-53.859c1.946-20.068,9.893-62.324,28.83-77.961h81.241    c-6.61,7.916-15.318,19.145-23.946,32.654c-2.224,3.482-1.204,8.107,2.278,10.331c1.248,0.797,2.642,1.177,4.02,1.177    c2.468,0,4.884-1.22,6.312-3.455c12.866-20.146,26.188-35.242,31.228-40.707h22.534c4.132,0,7.481-3.349,7.481-7.481    C512,251.868,508.652,248.519,504.52,248.519z M248.52,149.823v88.117l-59.925-59.925    C215.398,175.957,236.279,161.125,248.52,149.823z M248.52,274.06v83.99c-17.734-16.556-43.715-21.541-61.076-22.914    L248.52,274.06z M177.082,324.34c-3.081-27.716-18.933-48.372-31.76-60.859h92.619L177.082,324.34z M174.156,184.734    l63.785,63.785h-95.827C160.948,226.266,170.064,200.338,174.156,184.734z M76.371,216.033    c22.006-30.651,34.549-62.176,36.86-92.224l48.437,48.437c-2.378,11.794-11.994,50.186-40.202,76.274h-72.39    C56.695,240.718,66.586,229.66,76.371,216.033z M103.754,358.809c-5.104-26.022-18.536-62.293-52.898-95.328h71.178    c8.171,5.815,43.2,33.322,40.459,75.448l-55.44,55.44C107.157,384.836,106.465,372.629,103.754,358.809z M248.52,461.619    c-5.595-5.939-13.016-12.754-22.531-19.524c-21.113-15.019-56.789-32.497-110.351-35.152l57.292-57.293    c12.082-0.216,61.017,0.987,75.59,33.577V461.619z M263.481,54.676c9.144,7.872,22.687,18.482,39.193,28.241    c31.708,18.749,62.613,27.206,90.771,25.059l-52.278,52.278c-8.829,2.652-52.408,13.195-77.686-27.675V54.676z M323.233,178.189    l-59.751,59.751v-81.38c15.411,15.186,33.309,20.189,47.262,21.408C315.147,178.353,319.338,178.374,323.233,178.189z     M263.482,364.21v-90.15h0l58.435,58.435c-10.326,1.223-23.04,5.843-38.485,16.229    C275.799,353.857,268.942,359.415,263.482,364.21z M399.879,410.456c-11.254,0.989-27.124,3.067-44.944,7.446    c-37.51,9.218-68.727,25.142-91.453,46.494v-79.719c15.554-15.895,53.998-47.663,76.142-34.476L399.879,410.456z M344.204,301.878    c-2.635,9.672-4.377,18.908-5.507,26.238l-64.635-64.635h86.818C354.14,273.072,348.56,285.884,344.204,301.878z M274.061,248.519    l61.704-61.704c1.838,27.487,20.306,49.631,32.926,61.704H274.061z M391.147,248.519c-0.513-0.849-1.196-1.602-2.027-2.201    c-0.476-0.343-46.75-34.293-37.186-75.673l54.021-54.02c-0.882,12.194-1.103,28.349,1.247,45.759    c5.077,37.626,20.374,66.913,44.707,86.135H391.147z" data-original="#000000" class="active-path" data-old_color="#f05f40" fill="#f05f40"/>
	</g>
</g></g> </svg>
